<?xml version="1.0" standalone="no"?>
<!DOCTYPE svg PUBLIC "-//W3C//DTD SVG 20010904//EN"
 "http://www.w3.org/TR/2001/REC-SVG-20010904/DTD/svg10.dtd">
<svg version="1.0" xmlns="http://www.w3.org/2000/svg"
 width="4267.000000pt" height="4267.000000pt" viewBox="0 0 4267.000000 4267.000000"
 preserveAspectRatio="xMidYMid meet">

<g transform="translate(0.000000,4267.000000) scale(0.100000,-0.100000)"
fill="#000000" stroke="none">
<path d="M20921 39284 c-155 -41 -300 -179 -380 -359 -55 -124 -77 -326 -50
-457 16 -77 72 -188 124 -246 38 -42 130 -112 147 -112 3 0 -8 35 -24 78 -82
209 -107 413 -70 560 46 182 121 278 345 446 64 48 117 92 117 97 0 14 -149 9
-209 -7z"/>
<path d="M25440 38843 c-19 -1 -84 -8 -145 -13 -776 -74 -1606 -359 -2030
-698 -38 -31 -111 -96 -162 -144 -102 -96 -152 -126 -313 -183 -189 -67 -632
-284 -910 -445 -175 -101 -443 -281 -588 -395 -78 -61 -130 -95 -140 -92 -626
180 -789 232 -952 302 -218 93 -420 225 -542 354 -97 102 -148 184 -185 296
-22 69 -26 97 -26 210 -1 157 13 214 114 483 38 102 69 189 69 193 0 10 -81
-37 -180 -105 -95 -65 -271 -234 -359 -345 -162 -203 -325 -494 -356 -636 -21
-93 -16 -285 10 -380 24 -90 106 -251 173 -341 66 -89 191 -211 269 -264 29
-19 53 -38 53 -41 0 -4 -28 -12 -62 -19 -153 -30 -365 -113 -718 -280 -500
-237 -666 -292 -1000 -329 -430 -48 -631 -38 -1336 69 -144 22 -266 40 -269
40 -13 0 42 -68 125 -154 201 -210 460 -366 761 -460 148 -46 227 -63 388 -84
l132 -17 -98 -44 c-307 -139 -1306 -662 -1374 -720 -74 -62 -117 -205 -104
-346 34 -367 247 -864 512 -1195 112 -141 275 -291 418 -386 83 -55 156 -97
161 -91 2 2 9 64 14 138 26 334 94 566 228 768 35 53 171 205 178 198 2 -1
-29 -77 -68 -167 -90 -211 -150 -391 -184 -555 -23 -110 -27 -156 -28 -300 -1
-177 7 -245 50 -417 145 -582 562 -1102 1086 -1353 103 -49 295 -121 303 -113
2 2 -14 30 -36 63 -172 258 -267 606 -239 880 18 181 76 343 174 492 96 147
234 237 446 292 119 32 370 69 370 56 0 -3 -11 -45 -25 -93 -34 -121 -59 -269
-100 -605 -37 -299 -60 -433 -96 -552 -17 -57 -20 -87 -16 -160 7 -118 31
-193 133 -406 46 -97 84 -182 84 -189 0 -9 -11 -11 -37 -7 -107 17 -363 29
-493 23 -260 -12 -469 -48 -677 -117 -151 -50 -170 -75 -183 -239 -17 -242 29
-610 114 -907 53 -182 99 -300 191 -488 257 -524 599 -867 995 -999 41 -13
144 -36 228 -50 188 -31 254 -58 318 -130 39 -43 45 -54 40 -81 -14 -72 -18
-345 -7 -443 44 -375 214 -751 517 -1142 111 -143 440 -476 639 -645 334 -284
632 -485 924 -623 160 -75 217 -86 421 -78 651 26 1462 185 2313 453 145 46
148 46 182 30 50 -24 77 -71 72 -127 -5 -50 -28 -171 -57 -299 -24 -106 -50
-140 -156 -204 -114 -71 -188 -134 -375 -324 -242 -245 -308 -356 -469 -787
-172 -462 -462 -1146 -841 -1982 -220 -486 -580 -1268 -630 -1368 -71 -142
-46 -232 90 -323 35 -23 68 -44 74 -46 6 -2 -34 -68 -89 -148 -175 -252 -367
-559 -543 -866 -30 -51 -56 -93 -60 -93 -93 -2 -428 -24 -521 -35 -444 -54
-837 -174 -1111 -340 l-60 -37 -207 26 c-114 15 -246 34 -293 42 -85 16 -86
16 -205 110 -329 261 -897 618 -1092 685 -87 31 -186 49 -261 49 -73 0 -511
-72 -701 -115 -228 -51 -449 -139 -590 -235 l-59 -40 -111 0 c-307 0 -516 -59
-638 -181 -69 -69 -99 -129 -118 -240 -38 -216 19 -470 142 -642 19 -27 34
-50 32 -52 -4 -3 -308 -32 -468 -45 -307 -23 -718 -32 -1235 -27 -584 5 -1655
36 -1668 47 -4 4 -17 49 -28 101 -32 147 -36 451 -10 744 51 569 181 1118 346
1458 29 60 42 77 59 77 104 0 3515 289 4076 345 165 17 195 27 206 72 10 37
-3 207 -26 363 -12 74 -30 198 -41 275 -11 77 -87 579 -169 1115 -82 536 -237
1556 -345 2265 -509 3360 -611 4029 -821 5395 -124 806 -236 1515 -249 1575
-13 61 -26 154 -29 207 -3 55 -12 110 -20 126 -18 35 -94 77 -166 91 -88 17
-1202 94 -3810 261 -2132 137 -3120 203 -3659 247 -129 11 -186 -17 -451 -225
-97 -76 -366 -339 -433 -423 l-38 -47 101 -612 c55 -336 289 -1744 519 -3128
520 -3122 685 -4132 906 -5565 52 -337 101 -655 109 -707 8 -52 26 -144 40
-205 34 -145 35 -249 2 -325 -39 -92 -410 -859 -460 -950 -25 -47 -46 -78 -46
-69 0 9 27 194 60 410 78 520 124 854 154 1134 22 207 30 289 52 573 4 59 3
82 -5 82 -30 0 -246 -43 -284 -56 -61 -21 -114 -59 -132 -95 -11 -20 -34 -168
-65 -417 -48 -375 -106 -788 -153 -1077 l-22 -140 -65 -17 c-92 -25 -209 -85
-334 -172 -59 -42 -111 -78 -117 -81 -5 -4 -18 13 -28 37 -10 24 -76 165 -146
313 -171 361 -169 358 -200 627 -20 171 -35 231 -85 327 -79 150 -186 255
-308 301 -81 31 -215 25 -288 -13 -60 -31 -107 -81 -124 -133 -18 -53 -7 -194
20 -274 47 -139 170 -292 311 -385 69 -47 157 -90 165 -82 3 2 -49 112 -114
244 -111 225 -170 362 -187 442 l-7 33 42 -23 c55 -31 118 -102 152 -171 15
-30 50 -126 79 -214 57 -174 75 -216 125 -285 57 -78 64 -72 44 39 -51 282
-130 468 -257 603 -71 75 -78 77 -185 63 -42 -6 -46 -9 -51 -40 -16 -97 30
-231 145 -419 33 -55 63 -104 66 -109 15 -27 -69 38 -118 91 -98 107 -150 231
-150 358 0 80 14 125 47 158 62 58 156 74 253 42 67 -22 189 -136 243 -227 75
-126 117 -313 133 -585 l7 -122 -126 -3 -125 -3 77 -180 c92 -214 185 -413
365 -785 112 -231 131 -276 117 -282 -9 -4 -108 -24 -221 -44 -357 -63 -552
-128 -610 -201 l-23 -28 6 -315 c9 -467 58 -1356 112 -2040 13 -162 22 -296
21 -298 -6 -5 -254 -34 -626 -72 -386 -39 -720 -79 -850 -102 -56 -9 -71 -17
-106 -52 -68 -67 -69 -75 -68 -561 0 -663 24 -804 147 -866 70 -36 93 -40 372
-54 149 -8 441 -26 650 -40 614 -40 1034 -65 1120 -65 44 0 85 -4 91 -8 17
-11 20 -1811 10 -5305 l-9 -3047 -21 -5 c-12 -3 -109 -20 -216 -40 -818 -145
-1298 -283 -1756 -504 -366 -178 -543 -349 -547 -533 -3 -120 83 -250 237
-357 472 -326 1577 -610 3366 -865 2155 -308 4492 -475 7915 -566 1242 -33
3946 -38 5210 -11 2310 51 4101 118 6535 246 2597 137 4507 265 5590 375 333
34 1162 135 1489 181 982 138 1694 328 2008 536 315 208 341 552 61 819 -178
170 -467 295 -908 393 -726 160 -2464 422 -3391 511 -178 18 -334 33 -345 36
-12 2 -111 83 -220 180 -409 363 -533 445 -759 503 -279 71 -738 100 -1635
102 -294 1 -577 4 -628 8 l-93 6 281 280 c155 154 286 288 291 297 13 25 11
85 -5 116 -58 112 -172 137 -574 130 l-250 -4 -5 55 c-3 31 2 173 9 316 19
335 11 456 -43 619 -25 77 -26 87 -24 310 1 153 5 232 12 237 21 13 456 57
846 85 l241 18 26 40 c45 69 49 103 41 324 -5 146 -4 202 5 202 30 0 815 75
1105 105 1145 121 2480 322 3050 460 200 48 312 87 460 160 264 131 400 280
467 510 19 68 23 103 23 230 0 174 -17 249 -86 388 -58 116 -113 189 -217 289
-225 217 -520 355 -958 447 -262 56 -496 84 -1044 126 -333 25 -529 43 -540
50 -3 2 0 90 6 197 17 272 42 804 50 1056 l7 212 26 0 c125 1 553 23 670 35
486 51 870 172 1166 370 320 214 527 531 617 945 20 95 22 132 22 385 1 309
-2 348 -74 920 -83 665 -105 1057 -97 1779 6 607 33 881 132 1382 147 739 318
1261 925 2819 504 1293 701 1870 869 2542 177 707 196 1186 61 1568 -121 340
-345 562 -692 684 -215 75 -509 98 -1148 87 -390 -6 -500 -10 -1165 -46 -561
-30 -1928 -83 -2760 -106 l-240 -7 85 89 c449 470 707 877 885 1396 120 351
177 688 177 1053 0 558 -155 1055 -439 1412 -121 152 -150 211 -163 328 -26
233 -109 673 -175 931 -166 646 -409 1186 -731 1621 -56 75 -57 78 -111 287
-251 977 -519 1590 -918 2101 l-75 95 54 0 c185 0 450 -86 696 -225 58 -33
109 -62 114 -64 19 -8 -61 97 -113 150 -97 96 -218 169 -351 210 -105 33 -286
33 -375 1 l-60 -21 -40 42 c-21 23 -121 130 -222 237 -332 354 -573 554 -896
745 -418 245 -958 406 -1522 455 -108 9 -619 12 -705 3z m935 -183 c524 -77
911 -201 1218 -392 44 -27 148 -100 232 -162 595 -444 1051 -980 1371 -1611
152 -302 292 -680 439 -1190 96 -332 213 -825 196 -825 -18 0 -52 51 -79 120
-46 116 -78 223 -153 513 -78 301 -242 819 -319 1006 -166 403 -420 815 -718
1161 -85 100 -376 387 -477 471 -351 293 -759 542 -1140 695 -119 47 -121 48
-235 48 -193 -1 -324 -43 -642 -207 -128 -66 -193 -104 -184 -109 7 -4 46 -19
87 -34 185 -66 388 -178 555 -305 102 -78 119 -87 126 -71 7 18 133 114 181
139 115 58 197 29 323 -115 l76 -86 -64 -59 c-35 -32 -94 -87 -133 -122 l-69
-64 125 -123 c583 -574 992 -1338 1308 -2443 48 -167 157 -603 166 -660 l6
-40 -27 55 c-14 30 -52 136 -84 235 -32 99 -95 293 -140 430 -142 442 -267
750 -441 1095 -311 617 -691 1105 -1147 1469 -264 212 -629 454 -852 566 -262
132 -448 185 -834 240 -137 20 -274 41 -305 49 l-56 13 55 17 c30 9 132 32
225 51 94 19 253 58 355 86 397 108 591 150 780 168 127 12 125 12 275 -9z
m-2945 -875 c0 -6 -62 -33 -395 -170 -393 -161 -405 -167 -405 -174 0 -3 41
-35 90 -70 49 -35 97 -72 107 -83 14 -16 9 -15 -38 6 -30 14 -93 36 -141 50
-90 26 -224 48 -211 35 4 -4 87 -48 183 -97 362 -183 588 -349 885 -647 235
-236 456 -508 714 -883 148 -213 314 -493 301 -505 -3 -2 -115 -54 -250 -114
-518 -233 -781 -346 -789 -337 -5 5 -28 52 -51 104 -160 361 -447 806 -738
1145 -325 380 -840 783 -1099 862 -51 15 -93 31 -93 35 0 9 412 256 625 373
381 211 727 356 1050 440 113 30 255 47 255 30z m5660 -1630 l0 -75 -71 0
c-61 0 -70 2 -65 16 3 9 6 40 6 69 l0 54 58 4 c31 2 60 4 65 5 4 1 7 -32 7
-73z m-9695 -36 c61 -10 130 -24 155 -32 42 -13 29 -14 -190 -20 -272 -7 -426
-27 -865 -113 -154 -30 -288 -56 -297 -58 -10 -2 -18 -3 -18 -1 0 9 118 69
215 108 328 134 665 173 1000 116z m10299 -2193 c19 -189 24 -296 36 -721 6
-187 13 -376 16 -420 4 -44 4 -78 1 -75 -11 10 -57 318 -72 480 -8 91 -21 328
-30 528 -14 340 -14 364 2 389 l17 26 8 -28 c4 -16 14 -96 22 -179z m-6384
-166 c12 -96 26 -209 31 -250 66 -516 345 -1062 790 -1547 242 -263 733 -669
1169 -968 63 -43 147 -105 185 -136 75 -61 242 -226 234 -232 -24 -18 -143
-45 -628 -143 l-564 -114 -66 53 c-36 29 -78 61 -93 70 -111 69 -554 97 -1293
80 -220 -5 -456 -6 -525 -3 l-125 5 90 43 c87 42 579 263 660 297 67 27 251
73 430 105 94 17 209 40 257 51 l87 20 203 -40 c112 -23 212 -41 222 -41 12 0
-10 24 -65 67 -277 219 -650 407 -1014 509 -89 26 -116 29 -250 29 -137 0
-161 -3 -279 -33 -70 -19 -205 -60 -300 -93 -271 -95 -341 -112 -476 -111 -82
0 -156 8 -255 27 -259 49 -300 55 -390 58 l-90 2 2 -110 c7 -318 126 -575 322
-699 50 -32 181 -80 316 -117 114 -31 115 -30 -80 -54 -276 -34 -480 -78 -573
-122 -48 -23 -106 -94 -126 -155 -10 -29 -22 -109 -28 -178 -6 -69 -12 -130
-13 -136 -3 -9 -211 -32 -461 -51 l-80 -6 -29 57 c-60 118 -201 240 -370 321
-40 19 -152 66 -248 104 -150 59 -197 73 -324 95 -239 41 -337 80 -398 159
-24 33 -61 127 -49 127 3 0 37 -22 77 -49 85 -57 213 -123 383 -196 l122 -52
91 29 c108 34 168 76 199 140 21 42 24 65 29 215 6 187 -6 270 -52 370 l-25
55 -50 -45 c-69 -62 -129 -81 -234 -74 -98 6 -175 33 -363 125 -176 86 -188
94 -214 149 -23 47 -23 54 -3 348 l6 90 282 1 c543 1 1021 85 1499 264 327
122 781 361 1170 616 473 311 721 553 1014 989 67 99 145 206 174 239 46 51
54 56 60 40 4 -11 17 -98 29 -194z m5414 3 c56 -388 71 -601 63 -908 -6 -239
-22 -407 -59 -632 -21 -129 -21 -133 -3 -173 10 -22 23 -40 30 -40 6 0 47 18
91 41 74 38 84 40 149 37 48 -2 86 -11 120 -28 58 -28 153 -115 198 -180 17
-25 62 -81 100 -125 184 -213 257 -359 257 -520 0 -96 -6 -113 -43 -121 -119
-26 -440 -172 -580 -263 -43 -28 -79 -51 -81 -51 -2 0 -22 33 -44 73 -52 93
-107 168 -263 354 -71 83 -145 177 -165 208 -21 30 -41 54 -45 53 -4 -2 -44
-45 -89 -96 -45 -51 -84 -91 -87 -89 -2 3 41 94 95 204 55 109 107 216 116
238 l17 40 -46 -45 c-72 -69 -267 -288 -410 -460 -70 -85 -162 -191 -202 -235
l-74 -80 7 40 c11 67 103 198 427 608 275 348 386 561 451 867 43 199 49 300
41 727 -7 375 -1 603 15 603 4 0 10 -21 14 -47z m1346 -1030 c86 -56 250 -189
250 -203 0 -7 -84 24 -237 86 -101 42 -182 129 -183 197 0 16 3 16 43 -4 23
-12 80 -46 127 -76z m-2704 -88 c111 -91 261 -144 451 -161 37 -3 69 -6 70 -7
1 -1 -39 -36 -89 -77 -129 -108 -388 -376 -492 -510 -273 -353 -451 -690 -596
-1130 -26 -80 -51 -154 -54 -165 -3 -11 -4 21 -1 70 7 167 56 346 157 575 33
74 62 140 64 146 3 7 -13 14 -43 19 -77 11 -202 54 -283 96 -126 66 -122 52
-55 171 119 213 292 462 459 658 75 88 342 360 353 360 2 0 28 -20 59 -45z
m2821 -241 c92 -36 172 -69 177 -74 15 -15 -33 -108 -80 -156 -71 -72 -142
-78 -206 -17 -33 32 -43 60 -63 183 -17 111 -18 130 -6 130 6 0 86 -30 178
-66z m-22544 -276 c8 -24 189 -1069 402 -2323 213 -1254 533 -3137 712 -4185
178 -1048 347 -2047 374 -2220 75 -481 185 -1135 334 -1995 175 -1005 275
-1598 271 -1602 -9 -9 -37 12 -41 31 -2 11 -59 350 -125 751 -139 840 -204
1224 -485 2850 -304 1755 -393 2290 -399 2390 -6 103 -32 258 -76 460 -17 77
-60 309 -96 515 -36 206 -119 681 -185 1055 -66 374 -174 1000 -239 1390 -65
391 -176 1014 -245 1385 -69 371 -157 861 -196 1089 -66 390 -69 415 -53 432
24 27 29 24 47 -23z m732 -23 c165 -13 419 -34 565 -45 146 -11 459 -36 695
-55 1170 -93 2729 -196 3945 -260 272 -15 505 -29 518 -31 l23 -5 -31 -55
c-17 -31 -29 -58 -27 -61 9 -8 243 -32 432 -43 358 -21 586 -57 672 -106 72
-42 133 -158 133 -254 0 -116 -77 -224 -181 -254 -94 -28 -168 -36 -320 -36
l-146 0 -39 -37 c-75 -70 -176 -103 -396 -128 -174 -20 -253 -37 -317 -69 -60
-31 -125 -103 -145 -162 -59 -175 159 -401 414 -430 64 -7 65 -9 50 -48 -12
-32 -9 -32 147 -41 61 -3 136 -10 165 -15 67 -13 174 -65 192 -93 22 -34 84
-207 111 -310 76 -281 102 -638 74 -1029 -13 -187 -29 -261 -74 -347 -79 -147
-167 -199 -361 -208 -212 -11 -308 50 -448 284 -82 138 -162 338 -232 582 -25
85 -46 156 -47 157 -1 1 -30 4 -65 7 l-62 7 6 -43 c18 -130 48 -296 68 -380
l23 -96 -95 -32 c-92 -31 -96 -31 -109 -13 -36 49 -55 182 -34 237 5 14 23 40
40 60 l31 35 -76 52 -76 52 -31 -28 c-18 -16 -48 -43 -68 -62 l-35 -32 38
-173 c22 -94 70 -341 109 -547 115 -616 158 -837 184 -938 37 -150 67 -335 54
-343 -6 -3 -90 -12 -188 -20 -203 -15 -758 -18 -1319 -6 l-383 8 6 -73 c3 -40
7 -149 8 -242 l2 -169 -30 -9 c-99 -28 -511 -17 -591 17 -18 7 -51 37 -75 67
-42 53 -99 161 -99 187 0 12 -46 13 -302 7 -380 -8 -795 -22 -1094 -37 -319
-15 -366 -4 -403 97 -35 93 -60 241 -81 489 -27 312 -42 402 -97 565 -55 161
-62 252 -28 355 16 49 20 87 20 205 0 80 -4 161 -8 181 -7 33 -12 38 -80 65
-86 34 -151 95 -222 208 -67 107 -121 236 -215 511 -77 224 -170 445 -188 445
-5 0 -19 -42 -32 -92 -13 -51 -25 -97 -28 -103 -3 -5 -25 103 -49 240 -24 138
-95 525 -158 860 -62 336 -141 774 -175 975 -50 302 -91 500 -126 612 -4 14 4
18 43 21 84 8 309 -2 618 -28z m19427 -291 c9 -3 18 -15 21 -27 13 -53 29
-208 23 -214 -6 -7 -236 14 -244 22 -2 2 -7 37 -11 77 l-6 73 45 43 c44 42 46
42 100 37 30 -4 62 -8 72 -11z m2409 -774 c160 -15 270 -68 376 -178 59 -62
103 -140 128 -227 10 -33 21 -69 26 -80 5 -11 13 -74 18 -140 38 -467 16 -803
-75 -1117 -122 -426 -441 -810 -837 -1010 -192 -96 -449 -156 -627 -145 -326
21 -635 218 -775 497 -81 161 -110 336 -102 625 6 217 21 311 78 494 36 113
196 443 267 551 290 437 826 723 1387 738 22 1 83 -3 136 -8z m-6321 -593
c131 -5 257 -29 375 -70 l40 -14 -35 -6 c-216 -39 -726 -58 -1349 -50 -412 5
-509 3 -636 -11 -82 -9 -231 -23 -330 -32 -277 -24 -426 -57 -585 -132 -36
-16 -82 -37 -103 -46 l-39 -16 6 28 c3 15 8 52 12 82 9 74 39 101 142 129 161
43 666 109 1002 131 91 6 188 12 215 14 69 5 1120 -1 1285 -7z m-4940 -18
c248 -27 496 -84 755 -173 154 -52 349 -131 431 -174 48 -26 38 -27 -126 -7
-139 16 -261 40 -585 114 -246 56 -336 72 -540 98 -188 24 -629 24 -873 0 -95
-9 -187 -17 -205 -17 l-32 0 31 31 c24 24 54 37 139 59 133 36 315 67 460 80
126 10 404 5 545 -11z m4747 -278 c86 -8 115 -26 160 -100 60 -100 135 -375
169 -621 24 -172 24 -515 0 -660 -10 -58 -22 -147 -26 -199 -17 -178 -78 -318
-185 -420 -110 -106 -171 -125 -525 -168 -211 -25 -546 -23 -700 5 -183 33
-327 84 -407 145 -296 224 -505 604 -612 1112 -12 55 -23 110 -26 123 -3 12
-11 22 -19 22 -18 0 -28 136 -15 204 12 67 34 95 100 129 30 16 64 38 76 49
38 35 64 114 68 202 l3 80 49 13 c190 49 542 84 943 93 326 8 828 3 947 -9z
m-4677 -136 c63 -9 150 -22 194 -30 43 -8 79 -15 81 -15 8 0 16 -144 25 -475
11 -367 21 -501 60 -770 11 -77 25 -212 32 -301 11 -159 11 -161 -11 -192 -24
-34 -117 -84 -193 -104 -38 -10 -58 -10 -95 0 -77 20 -203 87 -274 145 -262
217 -536 750 -621 1205 -29 161 -32 423 -5 464 26 39 113 78 194 88 98 13 478
3 613 -15z m484 -70 c274 -70 442 -169 509 -301 118 -232 164 -652 116 -1062
-10 -90 -15 -105 -33 -112 -12 -5 -91 -20 -177 -35 -86 -14 -207 -39 -269 -55
-62 -17 -114 -29 -116 -27 -6 5 -35 387 -32 418 3 31 6 27 36 -46 45 -110 59
-126 114 -132 87 -10 168 33 201 106 18 40 20 67 20 231 0 204 -14 284 -69
392 -67 133 -100 153 -241 151 l-103 -2 0 92 c0 91 -15 301 -25 365 -7 37 -10
36 69 17z m1590 -687 c67 -263 168 -537 291 -793 40 -82 89 -193 110 -245 118
-299 310 -528 540 -643 142 -71 321 -117 535 -136 172 -16 708 -14 871 4 572
60 933 270 1063 617 38 102 64 246 86 480 11 116 21 212 22 213 2 1 82 20 178
43 96 23 323 80 503 127 181 48 331 84 334 82 3 -3 56 -140 118 -304 62 -164
138 -356 170 -428 101 -231 143 -422 190 -875 14 -135 28 -258 32 -275 l6 -30
14 40 c74 207 53 476 -66 844 -16 50 -26 91 -22 91 3 0 94 -82 201 -181 225
-208 360 -320 480 -397 47 -30 89 -58 93 -62 9 -8 -154 -393 -235 -555 -77
-153 -152 -260 -268 -376 -202 -204 -402 -330 -915 -577 -535 -256 -859 -384
-1629 -642 l-408 -137 111 -43 c61 -24 110 -45 108 -46 -6 -6 -293 -75 -427
-103 -326 -67 -757 -127 -1087 -152 -266 -19 -310 -7 -588 161 -328 198 -640
432 -957 716 -373 335 -644 695 -782 1038 -37 91 -89 266 -81 274 2 2 84 -21
182 -52 324 -102 447 -123 642 -112 307 17 545 119 747 320 79 80 180 213 170
224 -3 2 -55 8 -118 13 -390 32 -829 118 -1202 234 -241 75 -327 117 -414 206
-43 43 -92 125 -92 152 0 37 84 235 113 265 47 49 127 69 324 82 92 6 239 19
327 30 88 11 164 20 169 20 4 0 6 4 3 8 -3 5 34 22 82 37 126 42 173 63 204
92 50 48 78 153 118 438 11 83 28 179 37 215 17 71 71 210 81 210 4 0 20 -51
36 -112z m13971 -1318 c362 -13 513 -42 636 -121 87 -55 160 -165 207 -309 22
-66 63 -252 57 -258 -1 -2 -23 23 -48 55 -98 126 -240 240 -354 283 -74 27
-119 37 -266 55 -256 32 -482 35 -1142 20 -921 -22 -1376 -45 -1825 -91 -135
-14 -297 -26 -360 -26 -127 -1 -260 10 -260 22 0 7 98 55 185 88 87 34 292 80
520 118 121 19 267 46 325 60 195 46 1083 98 1830 107 102 1 196 3 210 4 14 2
142 -2 285 -7z m-20079 -89 c23 -10 49 -29 58 -42 25 -36 52 -136 95 -355 34
-169 50 -224 106 -369 159 -405 199 -564 199 -790 1 -181 -18 -265 -94 -422
-100 -205 -221 -279 -392 -239 -170 40 -331 127 -425 229 -114 125 -278 408
-343 592 -123 351 -129 725 -13 923 62 106 171 182 290 203 59 10 65 10 125
-19 115 -54 105 -61 104 82 -1 123 -1 124 29 167 35 49 53 56 155 58 44 0 78
-6 106 -18z m-1124 -77 c4 -3 8 -83 8 -178 l0 -173 -65 -25 c-75 -30 -70 -34
-106 70 -16 46 -38 221 -39 306 0 18 6 18 97 12 54 -4 101 -10 105 -12z
m22153 -139 c58 -80 101 -160 131 -245 24 -68 28 -92 32 -249 2 -96 1 -212 -3
-258 l-7 -82 -76 -105 c-42 -58 -78 -104 -79 -102 -2 1 4 65 13 142 28 239 9
578 -49 882 -8 39 -11 72 -8 72 3 0 24 -25 46 -55z m-7809 -927 c51 -56 80
-103 103 -170 48 -139 36 -216 -51 -339 -9 -14 -4 -33 26 -101 37 -82 39 -85
134 -154 78 -57 107 -73 147 -78 98 -15 180 -64 240 -146 34 -47 86 -145 99
-187 l7 -23 -133 0 c-551 0 -1092 -214 -1486 -585 -87 -82 -324 -359 -454
-531 -129 -170 -207 -298 -329 -537 l-117 -230 -7 64 c-16 151 -3 270 58 534
32 138 76 331 98 430 141 628 289 1025 500 1345 45 68 108 175 139 236 69 136
128 221 207 295 77 74 115 92 286 138 179 48 335 76 443 80 48 1 54 -1 90 -41z
m-14769 -25 c23 -13 44 -27 47 -32 10 -15 -485 -41 -806 -41 -243 0 -286 8
-313 61 l-15 28 53 4 c28 2 264 3 522 3 466 -1 470 -1 512 -23z m629 -211 c30
-78 64 -245 64 -310 0 -56 -8 -62 -90 -62 -82 0 -150 60 -190 166 -21 59 -48
220 -37 230 7 7 205 43 221 40 5 -1 20 -30 32 -64z m-2901 -383 c66 -5 186
-18 266 -30 131 -18 162 -19 305 -10 248 17 638 14 674 -4 24 -13 45 -13 137
-4 134 14 425 7 431 -9 6 -19 22 -14 22 7 0 29 70 35 404 36 l289 0 9 -30 c26
-89 126 -532 168 -745 55 -279 133 -730 127 -737 -3 -2 -35 1 -73 7 -85 14
-152 6 -226 -27 -53 -23 -60 -24 -125 -14 -181 30 -512 24 -778 -14 -144 -21
-141 -20 -165 -70 -72 -149 -298 -191 -554 -104 -122 42 -168 45 -321 19 -163
-28 -159 -28 -640 -11 -365 12 -748 10 -862 -5 -41 -6 -42 -6 -52 32 -27 96
-156 660 -221 964 -40 184 -83 362 -95 395 -20 52 -89 345 -82 351 1 1 166 7
367 12 389 11 799 7 995 -9z m15499 -426 c-14 -38 -48 -129 -76 -203 -27 -74
-90 -216 -138 -315 -48 -99 -106 -229 -128 -290 -77 -211 -144 -526 -173 -815
-15 -147 -11 -138 -221 -443 -71 -103 -158 -235 -193 -292 -74 -121 -134 -201
-198 -264 l-46 -44 -10 39 c-39 146 -63 266 -76 383 -40 346 -164 676 -447
1189 -44 81 -89 161 -99 177 l-18 31 167 56 c437 147 903 379 1497 746 99 62
181 112 182 112 1 0 -9 -30 -23 -67z m2514 -357 c45 -8 119 -25 164 -37 96
-26 88 -33 -47 -43 -408 -33 -598 -95 -762 -249 -161 -153 -451 -492 -556
-652 -109 -166 -219 -418 -332 -765 -21 -63 -48 -135 -60 -160 -24 -47 -174
-255 -180 -249 -6 8 26 206 49 303 52 214 149 474 276 743 107 224 206 356
503 673 85 91 153 167 151 169 -4 4 -122 -68 -244 -149 -162 -108 -351 -352
-493 -636 -179 -357 -293 -803 -352 -1369 -9 -82 -22 -204 -30 -270 -8 -66
-17 -160 -21 -210 -12 -155 -18 -151 -48 31 -16 93 -32 173 -36 177 -8 10 -64
-57 -265 -318 -76 -99 -177 -227 -224 -285 l-86 -105 -7 55 c-11 100 -8 272
12 585 38 595 70 846 145 1147 69 273 226 600 402 836 78 105 261 291 355 362
265 201 746 382 1133 429 115 14 453 6 553 -13z m-14747 -244 c65 -34 98 -90
106 -180 5 -51 2 -66 -16 -95 -46 -75 -177 -103 -264 -55 -101 56 -137 222
-66 312 41 53 157 62 240 18z m-8 -672 c30 -122 75 -475 63 -487 -8 -8 -65
183 -81 273 -16 94 -21 304 -6 289 5 -6 16 -39 24 -75z m1051 53 c11 -57 28
-224 24 -229 -6 -5 -235 30 -243 38 -9 9 -46 190 -40 197 3 3 59 8 123 12 64
3 120 6 124 7 3 1 9 -10 12 -25z m-678 -19 c24 -11 38 -28 50 -60 9 -25 14
-47 11 -50 -3 -3 -39 -1 -81 3 -67 8 -76 7 -72 -6 3 -9 21 -88 41 -176 21 -88
40 -166 44 -173 5 -9 22 -1 61 28 29 22 57 40 61 40 10 0 22 -241 12 -250 -12
-11 -251 -55 -259 -48 -22 22 -79 387 -90 570 l-7 117 24 5 c83 19 166 19 205
0z m9728 -134 c-13 -69 -38 -215 -54 -325 -17 -110 -41 -274 -55 -365 -14 -91
-36 -289 -50 -440 -13 -151 -27 -304 -31 -340 l-6 -65 -14 44 c-36 123 -49
236 -49 441 0 221 6 278 66 675 21 143 39 269 39 280 0 31 -14 5 -59 -110 -51
-129 -89 -281 -145 -580 -46 -245 -90 -433 -106 -449 -14 -14 -25 139 -24 324
4 482 160 831 449 1004 32 20 60 35 61 33 1 -1 -9 -58 -22 -127z m4610 -219
c111 -55 229 -173 300 -301 70 -129 140 -464 216 -1035 16 -127 34 -245 40
-263 12 -43 36 -216 50 -362 7 -63 36 -259 65 -435 133 -793 220 -1468 271
-2095 8 -107 22 -215 31 -240 8 -25 18 -85 21 -134 l5 -88 -73 52 c-210 150
-517 319 -778 429 -156 67 -384 151 -405 151 -10 0 -18 -24 -26 -75 -18 -112
-56 -245 -101 -353 -21 -53 -38 -98 -36 -99 2 -2 64 -20 137 -39 291 -76 510
-160 849 -325 145 -70 273 -126 313 -136 l68 -16 39 38 39 38 7 -27 c3 -15 4
-80 2 -144 -4 -87 -11 -131 -26 -172 -25 -63 -79 -121 -134 -145 l-37 -15 -15
52 c-8 29 -18 65 -21 80 -5 19 -47 57 -158 141 -258 194 -423 279 -732 380
-590 192 -1117 241 -1693 157 -73 -11 -144 -23 -159 -26 l-25 -7 5 229 c4 188
9 253 30 364 14 74 71 391 127 705 106 598 168 919 225 1172 19 84 35 179 35
212 0 108 29 293 80 501 27 113 73 300 100 415 89 367 200 662 331 885 88 148
202 293 283 361 212 176 572 258 750 170z m-3954 -151 c13 -52 44 -153 70
-225 64 -173 83 -239 130 -451 57 -256 74 -307 111 -338 20 -17 42 -26 66 -26
31 0 44 8 85 53 72 78 173 230 285 432 105 189 174 305 203 342 17 22 18 17
25 -143 4 -91 4 -309 0 -485 -7 -308 -7 -319 11 -319 11 0 64 7 119 15 116 17
140 18 105 4 -76 -31 -560 -144 -560 -131 0 3 20 39 43 81 47 81 99 192 94
197 -2 2 -48 -37 -103 -87 -167 -153 -270 -217 -385 -240 -83 -17 -153 13
-245 105 -125 125 -177 258 -245 633 l-33 182 23 78 c12 42 54 152 92 244 38
92 69 173 69 180 0 34 19 -15 40 -101z m-9604 51 c53 -33 76 -102 89 -278 l7
-92 42 -5 c22 -3 133 -15 245 -28 194 -22 204 -24 212 -46 14 -36 39 -187 46
-273 l6 -77 -54 -11 c-30 -5 -83 -16 -119 -22 -99 -18 -101 -22 -29 -62 63
-35 212 -87 249 -87 22 0 32 -38 57 -223 12 -94 14 -130 6 -135 -7 -4 -72 -20
-147 -36 l-135 -28 21 -43 21 -42 121 -12 c66 -7 124 -16 127 -19 34 -37 61
-210 48 -309 -4 -38 -8 -73 -9 -79 0 -26 -501 -36 -740 -15 -133 11 -150 15
-200 44 -83 48 -209 180 -242 252 -36 79 -102 307 -130 448 -30 147 -32 378
-4 477 36 131 105 231 206 299 l61 40 5 108 c5 120 17 175 45 214 40 56 136
76 195 40z m-3876 -18 c0 -5 18 -110 39 -236 38 -227 38 -227 17 -232 -58 -13
-246 -25 -392 -25 l-164 0 0 43 0 43 110 -4 c61 -3 110 -2 110 1 0 11 -124 95
-182 123 -55 27 -58 30 -58 65 l0 36 88 7 c48 4 108 9 134 13 51 6 51 5 78
109 l10 42 93 10 c50 5 98 10 105 11 6 0 12 -2 12 -6z m-652 -148 c-11 -12
-402 -55 -673 -74 -345 -26 -442 -47 -498 -109 -24 -26 -41 -139 -34 -229 9
-121 58 -197 145 -224 57 -17 363 -23 499 -9 65 6 208 27 318 45 109 19 201
32 203 30 7 -7 -110 -61 -178 -83 -166 -54 -371 -69 -695 -54 l-210 10 -37 42
c-109 122 -146 320 -85 453 39 85 75 113 165 126 214 33 468 55 822 74 108 6
263 7 258 2z m12806 -135 c-37 -261 -34 -955 6 -1315 30 -265 91 -980 97
-1130 l5 -130 -82 80 c-75 73 -82 77 -76 50 24 -126 38 -230 56 -425 11 -124
25 -250 29 -280 13 -75 58 -198 147 -401 41 -93 72 -174 69 -180 -17 -27 -92
-53 -155 -53 -56 -1 -74 4 -135 37 -38 21 -122 80 -185 133 -63 52 -116 90
-118 85 -2 -5 21 -78 51 -163 80 -225 110 -352 111 -473 0 -137 -38 -259 -109
-343 l-26 -31 36 -70 c19 -39 35 -73 35 -76 0 -10 -273 179 -418 289 -173 131
-197 147 -323 216 -140 76 -519 323 -580 378 -78 70 -84 130 -20 211 17 21 58
101 92 177 34 77 142 303 241 504 212 430 293 608 347 769 44 131 94 244 134
308 15 23 56 125 92 225 36 101 108 289 160 418 52 129 101 264 109 300 47
203 284 782 387 944 16 26 32 46 33 45 2 -2 -3 -47 -10 -99z m-12844 -234 l-5
-149 -135 -24 c-327 -57 -397 -65 -535 -66 -142 -1 -265 17 -327 49 -83 43
-112 192 -52 264 44 52 180 91 384 110 63 5 134 12 157 15 40 4 42 3 48 -28
11 -51 54 -185 88 -272 40 -105 45 -88 46 137 l1 178 163 2 162 3 5 -35 c3
-20 3 -103 0 -184z m3068 -576 l53 -14 -7 -100 c-4 -56 -9 -130 -13 -166 l-6
-65 -65 -7 c-35 -4 -65 -6 -67 -4 -2 1 10 27 27 57 16 30 30 57 30 61 0 3 -29
23 -65 43 -117 65 -270 189 -258 208 8 13 306 3 371 -13z m862 -65 c0 -69 -3
-79 -34 -122 -18 -27 -48 -74 -66 -105 -31 -56 -33 -58 -75 -58 l-42 0 -37 81
c-45 99 -56 167 -32 205 29 43 116 71 229 73 l57 1 0 -75z m-1433 31 c1 -1 7
-40 12 -86 13 -98 14 -247 3 -254 -4 -2 -55 -8 -112 -11 l-105 -7 0 93 0 93
-82 35 -83 35 -15 52 c-8 29 -15 55 -15 59 0 6 390 -3 397 -9z m-639 -193 l-3
-168 -105 -22 c-58 -12 -107 -20 -109 -17 -2 2 -7 38 -10 79 -6 63 -10 78 -30
91 -62 44 -210 179 -204 185 13 12 67 16 271 17 l192 2 -2 -167z m-2176 52
c406 -35 668 -68 668 -84 -1 -12 -86 -70 -160 -106 -41 -21 -140 -59 -220 -86
-80 -26 -217 -74 -305 -105 -148 -53 -167 -57 -250 -58 l-90 0 -135 63 c-183
86 -282 128 -330 141 l-41 11 23 42 c21 37 36 49 148 104 139 70 244 102 337
102 34 1 193 -10 355 -24z m14523 -490 c166 -48 262 -59 500 -59 211 0 260 4
533 41 67 9 124 14 127 12 2 -3 1 -106 -3 -229 l-7 -225 -65 -18 c-349 -95
-754 -67 -1237 85 l-133 41 0 136 c0 75 3 179 6 232 l7 96 91 -43 c50 -23 131
-54 181 -69z m-10285 -85 c118 -21 161 -52 180 -130 14 -60 26 -330 14 -330
-5 0 -29 19 -53 41 -64 59 -131 112 -135 108 -1 -2 -18 -32 -37 -66 -18 -35
-37 -63 -40 -63 -12 0 -39 209 -39 303 0 121 7 159 29 153 9 -3 45 -10 81 -16z
m-6804 -112 c-44 -461 -71 -679 -126 -1008 -22 -129 -49 -336 -60 -460 -11
-124 -25 -252 -31 -285 -18 -112 -42 -215 -49 -215 -4 0 -14 24 -22 53 -14 49
-14 62 3 153 26 134 56 363 69 509 11 129 12 655 1 770 l-6 70 -12 -60 c-26
-127 -35 -261 -29 -430 l7 -170 -31 30 -30 29 0 -137 c0 -154 -12 -245 -69
-533 -58 -291 -65 -353 -56 -533 15 -293 11 -350 -29 -505 -21 -77 -39 -143
-42 -148 -10 -16 -33 13 -56 70 -20 52 -22 73 -22 227 2 266 33 516 159 1271
75 448 116 743 135 979 13 147 29 225 62 287 l22 43 7 -30 c4 -16 8 -64 9
-105 l2 -75 14 59 c21 86 61 153 108 181 23 14 49 25 59 25 17 0 18 -6 13 -62z
m2674 5 c58 -14 112 -29 121 -34 20 -10 75 -173 89 -267 9 -59 9 -82 -4 -133
-22 -84 -48 -116 -120 -150 -278 -129 -567 -36 -627 203 -7 31 -9 74 -4 120
l7 73 77 66 c104 90 176 140 214 149 46 11 127 2 247 -27z m3504 13 c11 -46
37 -288 31 -295 -9 -8 -112 48 -169 93 -99 78 -227 209 -214 218 7 4 88 8 179
8 l167 0 6 -24z m-609 -28 c3 -2 8 -50 11 -105 l7 -101 -99 18 c-108 20 -168
39 -210 66 -35 23 -84 91 -84 117 0 19 5 20 186 14 102 -3 187 -7 189 -9z
m-598 -93 c7 -33 16 -117 19 -186 l7 -127 -29 -6 c-35 -8 -123 8 -164 29 -43
22 -65 61 -63 113 l2 44 -94 43 -93 43 -11 52 c-6 28 -11 53 -11 56 0 2 96 3
213 2 l212 -3 12 -60z m-1889 -34 c208 -68 291 -124 312 -209 6 -26 14 -152
17 -279 l5 -233 -118 0 c-205 0 -806 38 -819 52 -3 2 108 23 246 45 138 23
252 43 253 45 2 1 -3 71 -10 153 -21 251 -29 465 -16 465 6 0 65 -18 130 -39z
m4709 -87 c26 -9 96 -46 155 -82 l106 -66 7 -186 c8 -193 2 -337 -14 -353 -18
-18 -175 -47 -254 -47 -129 0 -183 40 -223 165 -31 96 -43 269 -25 354 15 71
54 147 99 194 41 42 72 47 149 21z m-1798 -398 c4 -3 23 -50 41 -104 l34 -99
120 -23 c67 -12 124 -25 128 -27 7 -4 -18 -80 -32 -96 -10 -11 -350 4 -350 16
0 5 18 38 40 73 22 35 40 68 40 73 0 18 -61 61 -103 72 -29 8 -72 8 -144 2
-56 -6 -120 -7 -140 -3 l-38 7 98 47 c54 26 122 53 150 61 47 13 135 14 156 1z
m840 -23 c57 -43 95 -130 108 -245 l6 -58 -64 0 c-35 0 -88 -3 -116 -6 l-53
-7 0 173 0 173 46 -6 c26 -2 58 -14 73 -24z m-1762 -282 c33 -17 212 -11 442
14 150 17 314 14 326 -5 2 -4 -18 -27 -45 -50 l-50 -43 -223 2 c-150 2 -276
-3 -385 -14 l-163 -17 -83 26 c-78 24 -84 28 -90 57 -14 71 -12 74 76 112 l81
35 44 -52 c24 -28 56 -57 70 -65z m-4658 -357 c2 -165 -41 -325 -135 -503 -70
-132 -146 -311 -254 -596 -46 -121 -85 -221 -86 -223 -2 -4 -227 28 -232 33
-17 16 459 1016 611 1284 93 163 94 163 96 5z m-1860 -101 c27 -18 346 -658
479 -959 77 -174 202 -492 202 -514 0 -12 -90 -13 -122 -1 -23 9 -72 106 -424
841 -107 224 -258 556 -284 626 -9 24 -9 24 58 24 47 0 75 -5 91 -17z m20038
-413 c-6 -191 -28 -315 -113 -662 -47 -192 -70 -268 -80 -268 -18 0 -80 56
-145 131 l-51 59 26 73 c14 39 53 171 86 292 73 265 127 402 205 521 l59 89 9
-40 c5 -22 6 -110 4 -195z m-2087 62 c12 -31 41 -132 65 -223 24 -91 62 -215
85 -275 61 -159 70 -191 70 -253 0 -87 -8 -90 -76 -35 -129 103 -212 196 -225
252 -16 70 -11 290 11 417 31 181 32 185 41 180 4 -3 17 -31 29 -63z m-15990
-99 c30 -196 -16 -401 -165 -737 -36 -81 -65 -155 -65 -164 -1 -58 -74 -146
-148 -178 -53 -23 -200 -32 -207 -12 -7 17 35 130 76 208 15 30 76 177 134
325 102 258 239 554 306 660 l32 50 13 -37 c7 -20 18 -72 24 -115z m-1210 -45
c0 -50 -10 -188 -21 -307 -16 -158 -20 -254 -16 -356 l5 -140 -25 55 c-13 30
-54 129 -90 220 -36 91 -94 221 -129 289 -35 68 -64 124 -64 126 0 12 312 205
332 205 5 0 8 -41 8 -92z m2828 -545 c-205 -565 -406 -1375 -543 -2193 -14
-85 -31 -158 -38 -162 -32 -19 -415 -67 -436 -54 -4 3 8 121 25 263 18 142 53
452 79 688 25 237 59 540 75 675 33 274 37 355 16 404 -18 43 -94 104 -198
158 -88 46 -148 97 -148 128 0 29 73 77 149 100 86 26 244 45 521 65 406 28
465 32 501 34 l37 1 -40 -107z m-1419 51 c3 -3 5 -28 4 -55 -2 -96 -71 -159
-171 -159 l-49 0 -7 38 c-17 109 67 200 173 187 25 -3 47 -8 50 -11z m16581
-174 c297 -14 677 -53 697 -73 8 -9 -54 -121 -93 -169 -22 -26 -67 -69 -101
-96 -62 -49 -63 -50 -125 -46 -35 2 -151 9 -258 15 -210 11 -262 19 -502 75
-99 24 -158 42 -158 50 0 17 66 170 95 219 l23 40 93 -3 c52 -1 200 -7 329
-12z m-18457 -109 c13 -16 45 -70 72 -121 l47 -93 -33 7 c-19 4 -136 22 -261
41 -216 33 -405 69 -416 80 -6 6 -9 5 178 50 161 39 289 62 352 64 28 1 41 -5
61 -28z m2107 -37 c41 -26 93 -61 114 -77 l39 -31 -118 -18 c-66 -10 -150 -26
-187 -37 -45 -12 -68 -15 -66 -7 8 30 122 216 132 216 6 0 45 -21 86 -46z
m-2739 -119 c328 -103 763 -186 1184 -225 124 -11 375 -59 375 -71 0 -11 -294
-23 -560 -24 -530 0 -935 65 -1090 175 -29 21 -30 24 -30 101 0 43 2 79 4 79
2 0 55 -16 117 -35z m2995 -332 c-14 -126 -42 -388 -61 -583 -58 -579 -122
-1107 -156 -1284 -5 -28 -19 -136 -30 -241 -19 -180 -57 -456 -64 -463 -2 -2
-10 27 -20 65 -11 49 -19 153 -26 368 -11 333 -10 342 51 1180 40 546 60 873
60 978 l0 57 -132 0 c-155 0 -328 10 -328 19 0 4 120 30 268 60 147 29 310 63
362 75 74 17 96 20 98 9 2 -7 -8 -115 -22 -240z m12928 168 c179 -93 248 -133
253 -147 2 -5 -68 -111 -156 -234 -157 -222 -160 -225 -193 -222 -33 2 -388
68 -420 78 -23 7 -26 1 132 244 70 107 147 232 171 277 24 46 48 83 53 83 5 0
77 -35 160 -79z m-4290 -146 c113 -37 252 -111 428 -227 84 -56 233 -152 330
-214 209 -132 301 -201 406 -299 l77 -72 130 -6 c115 -6 319 -34 398 -55 l28
-7 -86 -131 -85 -131 -83 -7 c-369 -28 -647 -38 -932 -34 l-310 5 -155 42
c-212 57 -366 106 -485 153 -112 44 -277 128 -319 161 l-27 22 104 93 c112
100 196 191 276 295 59 78 135 206 127 214 -10 10 -172 -106 -316 -227 -80
-68 -171 -143 -202 -167 l-58 -44 -54 17 c-53 17 -55 18 -100 103 l-46 86 0
-168 0 -168 -27 -24 c-30 -26 -203 -115 -225 -115 -7 0 -39 26 -71 58 l-58 57
15 -40 c8 -22 57 -157 110 -299 53 -143 94 -261 93 -263 -2 -1 -30 4 -63 13
-109 28 -206 110 -281 238 -74 126 -214 431 -220 477 -11 88 49 205 133 260
22 14 73 48 114 76 211 142 401 209 880 309 237 50 263 53 365 50 85 -3 128
-10 189 -31z m5830 -370 c21 -153 40 -385 32 -393 -13 -12 -477 56 -493 72 -7
6 216 299 329 431 l93 109 12 -54 c7 -30 19 -104 27 -165z m4150 170 c199 -27
492 -88 510 -106 12 -11 -6 -191 -39 -384 -46 -270 -106 -517 -211 -856 -117
-382 -184 -493 -343 -574 -207 -104 -546 -208 -891 -272 -131 -25 -168 -27
-375 -28 -144 0 -263 5 -320 14 -345 52 -622 133 -1165 341 -275 105 -488 177
-627 212 -117 29 -352 31 -533 5 -171 -25 -523 -32 -965 -19 -507 15 -745 2
-1090 -62 -215 -40 -476 -7 -862 111 l-152 46 21 31 c12 17 65 75 117 129 99
102 220 200 377 304 49 34 105 78 123 99 33 37 70 107 71 132 0 15 -271 -120
-422 -212 -223 -134 -378 -273 -483 -434 -57 -88 -61 -92 -104 -98 -67 -10
-227 2 -307 24 -63 17 -214 79 -214 89 0 13 140 278 171 324 98 145 250 231
621 353 125 41 271 95 324 120 92 44 206 117 233 150 12 15 10 15 -29 1 -23
-8 -164 -49 -314 -91 -353 -98 -476 -136 -616 -191 -172 -68 -237 -112 -316
-217 -51 -67 -138 -235 -175 -340 -14 -38 -30 -66 -38 -66 -20 0 -335 82 -344
90 -10 9 42 149 104 279 121 256 299 453 496 550 121 60 586 190 828 231 325
55 511 47 942 -40 1248 -253 2820 -488 3775 -564 103 -9 218 -22 255 -30 43
-9 157 -17 308 -20 132 -4 267 -10 300 -16 89 -14 370 -24 449 -16 l68 8 -48
43 -49 43 45 48 c144 155 207 312 310 776 15 69 26 98 38 102 33 10 439 -4
546 -19z m-11594 -170 c0 -3 -34 -74 -77 -158 l-76 -152 1 -260 c0 -143 5
-314 11 -380 5 -66 7 -122 5 -124 -3 -3 -35 10 -72 28 -189 93 -324 238 -381
408 -30 90 -40 317 -17 395 40 139 198 222 451 238 61 4 120 8 133 8 12 1 22
0 22 -3z m9304 -402 c4 -49 9 -114 12 -147 6 -58 6 -59 -17 -53 -13 3 -58 9
-100 12 -76 7 -77 8 -83 37 -3 17 -6 77 -6 134 l0 104 94 0 94 0 6 -87z m5585
-424 c-4 -133 -6 -152 -23 -164 -31 -23 -389 -178 -573 -248 -265 -102 -836
-287 -848 -276 -6 7 14 224 25 262 19 65 54 90 205 150 77 31 250 101 385 155
348 142 730 269 809 271 l23 1 -3 -151z m-15265 -304 c33 -9 91 -32 129 -52
l71 -37 -52 -24 c-71 -32 -167 -50 -302 -58 l-115 -7 -41 54 c-84 110 -87 122
-34 132 65 11 289 6 344 -8z m2879 -13 l49 -7 -26 -24 c-24 -22 -31 -23 -118
-19 -94 5 -218 33 -218 49 0 10 241 11 313 1z m517 2 c32 -7 32 -7 26 -52 -3
-25 -7 -47 -9 -48 -13 -13 -267 51 -267 67 0 6 63 25 110 32 44 7 106 7 140 1z
m-1135 -154 c134 -13 142 -15 150 -43 19 -66 35 -61 -146 -54 -90 3 -195 13
-234 22 -83 18 -165 46 -165 56 0 4 26 10 58 14 31 3 66 7 77 9 46 7 157 5
260 -4z m495 -51 c63 -6 119 -14 123 -18 18 -18 -14 -62 -60 -83 -54 -24 -141
-21 -211 8 -40 15 -102 73 -102 94 0 13 107 13 250 -1z m-1094 -29 c26 -6 69
-20 96 -32 38 -16 48 -25 48 -44 0 -23 -2 -24 -57 -18 -168 18 -452 79 -437
93 20 21 259 21 350 1z m1668 0 c58 -12 58 -12 52 -42 -3 -17 -6 -45 -6 -62 0
-59 -10 -61 -89 -22 -76 39 -79 44 -65 115 6 27 11 32 28 28 12 -3 47 -11 80
-17z m-2588 -56 l81 -7 17 -60 c9 -33 15 -62 12 -65 -3 -2 -173 -5 -378 -5
-315 -1 -392 2 -498 17 -85 13 -183 19 -307 19 -101 1 -183 2 -183 4 0 1 37
14 82 28 118 37 236 53 506 66 130 6 239 13 242 16 6 6 300 -3 426 -13z m339
-64 c72 -6 153 -13 181 -16 l51 -5 15 -55 15 -54 -56 0 c-58 0 -226 22 -318
41 l-53 10 0 50 c0 43 3 50 18 45 9 -2 76 -10 147 -16z m760 -72 c1 -2 5 -22
8 -45 l5 -43 -164 0 c-119 0 -174 4 -199 14 -34 15 -55 41 -55 72 0 16 15 17
201 11 111 -3 202 -7 204 -9z m865 -48 c174 -27 180 -28 180 -43 0 -18 -49
-64 -83 -76 -37 -14 -72 -14 -184 1 -103 14 -103 13 -103 101 0 48 1 48 28 43
15 -3 88 -15 162 -26z m-392 8 c82 -11 83 -12 103 -49 10 -21 19 -41 19 -44 0
-3 -62 -5 -137 -5 -95 0 -154 5 -194 16 -66 18 -139 72 -117 85 19 13 230 11
326 -3z m753 -44 c45 -8 99 -24 119 -34 35 -18 100 -82 100 -99 0 -4 -53 -2
-117 5 -241 26 -230 21 -219 99 8 52 4 51 117 29z m-3367 -50 l46 -7 0 -51 c0
-82 8 -80 -206 -67 -195 11 -265 24 -363 67 -45 20 -53 27 -39 35 33 19 462
36 562 23z m8336 -10 c0 -4 -5 -24 -11 -45 -13 -43 -17 -45 -151 -59 -174 -18
-187 -11 -76 40 99 46 238 83 238 64z m-8967 -51 c11 -10 -50 -50 -99 -63 -47
-13 -219 -8 -278 8 l-29 8 44 17 c24 9 62 21 84 26 46 10 268 14 278 4z m1702
-19 c50 -9 94 -20 98 -24 13 -11 -50 -59 -87 -66 -56 -10 -178 33 -279 97
l-32 21 105 -6 c58 -3 146 -13 195 -22z m-690 -8 c55 -8 165 -22 244 -30 79
-9 147 -19 151 -23 4 -4 14 -34 23 -65 l16 -58 -34 0 c-67 0 -274 41 -389 77
-111 35 -120 40 -132 70 -19 43 -18 55 4 49 9 -3 62 -12 117 -20z m1090 11
c100 -4 166 -31 190 -77 9 -18 14 -34 11 -38 -6 -6 -351 16 -398 25 -26 5 -28
9 -28 53 l0 47 73 -3 c39 -2 108 -5 152 -7z m535 -18 c42 -10 117 -57 125 -78
5 -12 -22 -13 -191 -8 -107 3 -198 8 -202 12 -10 10 12 38 46 58 58 34 130 39
222 16z m13782 -36 c5 -97 -10 -265 -24 -275 -7 -4 -81 -35 -164 -67 -296
-117 -686 -238 -1161 -360 l-233 -59 1 41 c0 23 4 50 8 60 4 10 46 36 96 59
50 22 266 122 480 223 215 100 444 206 510 235 131 58 466 198 477 199 4 1 8
-25 10 -56z m-13213 -13 c74 -6 142 -10 152 -10 12 0 15 -6 11 -26 l-5 -27
-141 6 c-148 6 -222 22 -266 57 l-25 21 70 -6 c39 -3 131 -10 204 -15z m485
-30 c39 -6 71 -12 74 -14 6 -6 -55 -121 -71 -135 -13 -10 -14 -7 -6 26 17 73
21 70 -111 83 -66 7 -120 17 -120 21 0 25 122 35 234 19z m10711 -241 c4 -138
3 -254 -2 -259 -11 -9 -380 -158 -508 -205 -297 -107 -578 -147 -798 -114 -62
9 -77 16 -109 47 l-38 36 113 34 c337 102 733 306 1162 600 88 61 163 111 166
111 4 1 10 -112 14 -250z m-4605 156 c25 -10 65 -32 90 -49 l45 -31 -270 -7
c-513 -13 -861 -35 -1720 -108 -878 -75 -1104 -89 -1690 -110 -154 -6 -534
-24 -845 -40 -311 -16 -677 -34 -815 -40 -137 -6 -308 -15 -380 -20 -71 -6
-348 -21 -615 -35 -519 -27 -878 -53 -1160 -85 -325 -37 -493 -50 -622 -50
l-128 0 -62 46 c-35 25 -65 50 -68 54 -9 14 -386 69 -755 109 -309 35 -745 70
-1444 116 -695 47 -796 55 -941 80 -47 8 -88 15 -92 15 -21 0 -4 22 30 39 76
39 132 43 449 31 645 -22 991 -58 2368 -241 723 -96 850 -105 1233 -89 152 6
403 15 557 20 154 5 323 13 375 19 52 5 201 17 330 26 129 9 316 22 415 30
299 24 807 47 1725 75 1121 35 1935 91 2640 180 151 19 585 62 805 79 61 5
198 8 305 7 165 -2 202 -5 240 -21z m-7538 -44 l86 -6 -28 -61 -28 -62 -128
23 c-115 20 -232 46 -274 61 -12 4 -11 7 5 16 63 36 167 44 367 29z m610 -12
c52 -11 148 -56 148 -69 0 -20 -275 -26 -363 -9 -62 13 -158 57 -165 77 -5 16
303 17 380 1z m-4689 -471 c-13 -6 -23 -14 -23 -18 0 -12 93 -58 172 -84 97
-33 178 -50 412 -86 104 -17 232 -41 285 -55 65 -17 159 -29 296 -40 110 -9
355 -31 545 -51 888 -90 1038 -104 1225 -118 561 -43 774 -44 1660 -7 866 36
1666 63 3420 116 1403 42 1950 59 2725 85 946 32 1026 39 1133 98 51 27 113
97 123 139 4 13 10 23 14 23 4 0 252 -22 551 -50 765 -69 1205 -106 1564 -129
171 -11 354 -25 407 -31 95 -9 173 -35 198 -65 15 -18 25 -17 -715 -65 -1189
-78 -2452 -170 -5337 -390 -2300 -175 -2126 -159 -2132 -185 -3 -12 -10 -179
-16 -371 -10 -343 -25 -643 -33 -650 -7 -7 -338 -7 -407 0 -76 8 -789 50
-3065 181 -1735 100 -2834 166 -3600 215 -833 54 -1519 100 -1551 105 -29 5
-36 14 -81 113 -63 133 -141 342 -183 487 -17 61 -38 124 -46 142 -18 41 -18
134 1 180 9 20 31 56 51 80 40 49 40 48 -56 57 -36 4 -177 17 -315 31 -339 33
-1001 87 -1575 130 -261 19 -504 38 -540 41 -64 7 -63 7 90 25 85 10 180 23
210 28 30 6 129 25 220 43 l165 32 1040 7 c572 5 1096 13 1165 18 69 5 393 15
720 20 327 6 638 12 690 13 52 2 212 1 355 0 194 -3 254 -6 238 -14z m16457
-255 c0 -16 10 -156 22 -313 18 -226 22 -369 23 -692 0 -292 -3 -410 -11 -418
-9 -9 -47 4 -150 50 -412 185 -960 368 -1351 451 -130 28 -125 21 -95 139 l17
65 65 4 c36 1 189 -3 340 -9 185 -9 304 -10 365 -4 l90 10 -75 22 c-295 89
-407 125 -439 139 l-36 16 130 13 c160 16 397 53 408 64 11 10 -233 57 -398
76 -199 23 -189 19 -193 89 l-3 60 208 33 c290 46 664 123 883 181 102 27 188
49 193 50 4 0 7 -11 7 -26z m-1080 -1163 c455 -164 874 -306 1037 -350 l81
-23 -18 -51 c-18 -53 -65 -151 -107 -224 l-25 -42 -101 54 c-221 118 -507 237
-961 400 -292 106 -459 167 -464 171 -2 2 9 58 24 124 26 111 30 120 49 115
11 -4 229 -82 485 -174z m-20533 40 c98 -6 197 -13 219 -16 l41 -5 27 -131
c14 -72 28 -133 30 -135 9 -9 87 39 121 74 19 20 50 66 67 101 l32 65 241 -6
c302 -9 372 -15 380 -35 3 -8 10 -90 15 -181 9 -180 20 -242 50 -301 25 -49
78 -94 94 -80 44 36 126 284 156 473 10 61 16 77 30 77 9 0 253 -16 541 -35
971 -64 2194 -139 3539 -216 107 -6 196 -12 198 -13 1 -2 -20 -45 -47 -97
-123 -234 -170 -462 -192 -932 -40 -836 126 -1708 452 -2373 174 -354 359
-614 661 -930 118 -123 147 -159 157 -195 9 -34 11 -339 9 -1356 l-3 -1311
-100 -6 c-55 -3 -298 -10 -540 -16 -242 -6 -552 -15 -688 -21 -137 -6 -250 -9
-251 -8 -2 2 1 45 5 94 5 50 24 315 44 590 45 630 70 954 95 1218 22 228 19
268 -25 344 -50 84 -129 134 -282 178 -213 62 -445 96 -824 121 -140 9 -256
18 -258 20 -2 2 -21 117 -42 256 -48 324 -100 623 -145 841 -41 196 -129 549
-144 577 -20 38 -75 70 -118 70 -73 0 -85 -28 -131 -290 -49 -280 -71 -614
-71 -1097 l0 -323 -128 0 -128 0 -15 313 c-18 406 -17 980 3 1100 13 82 13 87
-4 87 -46 0 -499 -84 -571 -106 -18 -6 -19 -23 -12 -418 8 -404 1 -666 -16
-666 -4 0 -45 51 -90 113 -66 91 -116 182 -269 492 -108 218 -216 422 -254
478 -68 102 -175 237 -187 237 -4 0 -16 -35 -26 -77 -27 -118 -24 -335 11
-603 15 -119 26 -238 24 -265 l-3 -50 -93 162 c-50 89 -171 318 -268 508 -97
190 -179 345 -183 345 -5 0 -75 -23 -157 -51 -191 -65 -307 -126 -396 -208
l-70 -64 7 -46 c7 -54 63 -175 139 -305 29 -50 150 -260 268 -466 118 -206
244 -422 280 -480 36 -58 65 -106 64 -107 -1 -1 -105 -16 -231 -33 -291 -39
-460 -72 -590 -115 -263 -86 -344 -167 -353 -355 -4 -91 -2 -120 114 -1530 41
-503 74 -928 72 -945 l-3 -30 -190 -22 c-104 -12 -231 -29 -281 -37 -50 -9
-94 -16 -98 -16 -8 0 -8 7889 1 8053 l6 127 53 0 c29 0 133 -5 231 -10z m411
-122 c2 -23 -4 -43 -17 -59 -18 -22 -21 -23 -36 -8 -20 19 -22 77 -5 109 10
19 13 20 33 7 14 -9 23 -27 25 -49z m982 15 c0 -39 -44 -253 -61 -299 -36
-100 -44 -98 -57 13 -7 54 -15 142 -18 196 l-7 97 72 0 c39 0 71 -3 71 -7z
m21440 -628 c0 -437 -2 -516 -14 -521 -20 -8 -265 76 -541 184 -252 98 -476
174 -576 193 -35 6 -65 13 -67 14 -1 1 14 26 34 56 76 111 142 285 169 442 l6
37 108 0 c177 0 558 45 801 94 36 8 68 14 73 15 4 0 7 -231 7 -514z m-16462
333 c248 -12 455 -24 460 -27 5 -5 0 -3553 -7 -4081 l-2 -135 -94 98 c-559
582 -908 1425 -1010 2438 -23 223 -30 645 -16 889 19 310 45 505 97 714 34
133 36 137 82 131 20 -2 241 -14 490 -27z m2062 -113 c113 -8 240 -15 283 -15
42 0 77 -3 77 -7 0 -5 -28 -39 -61 -78 -168 -192 -196 -289 -186 -630 12 -381
106 -665 395 -1187 473 -855 880 -1693 1196 -2460 l76 -187 -49 -76 c-94 -143
-103 -199 -81 -470 18 -219 55 -312 165 -412 91 -83 218 -173 380 -270 72 -42
132 -78 134 -80 7 -5 -173 -278 -204 -309 -23 -23 -50 -36 -115 -52 -130 -33
-182 -52 -217 -78 -17 -13 -67 -77 -110 -141 -46 -69 -118 -159 -173 -217
l-95 -98 -47 69 c-86 130 -212 277 -383 449 -188 190 -340 322 -675 589 -269
214 -555 452 -591 491 -24 27 -27 42 -43 197 -22 213 -53 427 -116 787 -197
1133 -242 1677 -244 2985 l-1 650 24 95 c49 196 146 449 178 461 31 13 267 9
483 -6z m14440 -1263 c75 -75 78 -184 7 -263 -59 -66 -137 -87 -239 -66 l-38
8 0 87 c0 48 5 104 11 125 20 75 110 144 188 146 26 1 42 -7 71 -37z m-19240
-1941 c138 -593 219 -1108 284 -1818 3 -39 2 -41 -27 -47 -16 -3 -49 -6 -73
-6 l-44 0 -1 38 c0 20 -3 55 -8 77 l-7 40 -23 -68 c-13 -38 -28 -70 -35 -72
-6 -2 -49 -6 -95 -10 l-84 -7 7 187 c6 159 5 190 -8 204 -11 12 -17 52 -22
139 l-7 122 31 0 c55 0 62 -7 56 -58 l-5 -47 37 59 c21 33 39 55 40 50 2 -5 7
-56 13 -114 5 -58 16 -121 25 -140 15 -33 16 -28 12 133 -2 93 -7 171 -10 174
-3 4 -50 -3 -103 -15 -53 -12 -97 -21 -98 -20 -7 10 -13 248 -6 252 5 3 41 9
80 12 39 4 71 8 71 9 0 6 31 226 35 253 l6 32 -101 0 -101 0 5 53 c3 28 8 135
11 237 3 102 11 235 16 295 10 104 44 288 57 310 8 13 22 -37 72 -254z m-2436
-23 c68 -139 181 -350 251 -468 152 -259 230 -415 284 -574 47 -137 50 -174
21 -317 -22 -107 -83 -317 -104 -357 l-13 -24 -23 38 c-181 305 -592 1045
-824 1484 l-145 275 67 30 c37 16 130 60 207 97 77 36 143 67 147 67 5 1 64
-113 132 -251z m1750 -40 c3 -79 8 -226 11 -328 3 -102 12 -358 20 -570 8
-212 17 -508 21 -658 l7 -273 -79 47 c-43 26 -84 52 -91 58 -9 8 -15 112 -23
356 -14 431 -50 829 -71 774 -18 -50 -29 -335 -29 -757 0 -424 -8 -554 -24
-389 -25 262 -48 568 -61 807 -20 378 -37 987 -27 997 8 8 285 75 318 77 21 1
22 -4 28 -141z m-1136 -36 c115 -176 255 -468 317 -662 10 -30 28 -78 41 -107
36 -81 93 -257 121 -373 31 -132 42 -344 23 -457 -20 -127 -20 -127 -73 -42
-78 126 -175 348 -161 371 11 17 83 222 80 226 -2 1 -32 -29 -67 -68 -34 -39
-65 -67 -69 -63 -17 20 -60 158 -60 194 0 30 -12 59 -50 120 -27 44 -50 83
-50 86 0 3 29 52 65 108 51 80 65 110 65 140 l0 39 -71 -77 c-39 -42 -75 -77
-80 -77 -5 0 -9 15 -9 33 0 17 -18 149 -39 292 -22 143 -42 285 -46 315 -3 30
-8 67 -11 83 -3 15 -3 27 -1 27 3 0 36 -48 75 -108z m5877 -441 c14 -95 54
-346 89 -559 69 -419 101 -640 93 -648 -7 -7 -136 72 -170 105 -58 54 -57 39
-57 553 0 429 7 734 17 725 2 -2 15 -82 28 -176z m9010 9 c299 -38 390 -53
390 -65 -1 -6 -5 -57 -9 -115 -9 -117 1 -175 34 -205 30 -27 1391 -395 1540
-417 88 -12 217 -6 430 22 85 11 179 20 208 20 l52 0 0 -179 c0 -98 -3 -199
-6 -224 -6 -45 -7 -45 -79 -77 l-72 -31 -6 -142 c-4 -78 -7 -284 -7 -458 l0
-317 -257 -5 c-330 -7 -420 -24 -484 -94 -59 -63 -77 -151 -41 -205 9 -15 96
-101 192 -191 96 -91 219 -210 273 -264 l98 -100 -167 -6 c-92 -4 -386 -7
-653 -7 -761 0 -1180 -30 -1613 -114 l-118 -23 0 281 0 281 33 19 c17 10 183
105 368 211 513 294 549 320 549 393 0 72 -89 222 -190 320 -112 110 -248 171
-379 172 -66 0 -72 2 -66 18 4 9 22 62 40 117 76 233 75 345 -9 615 -98 318
-171 475 -281 613 -53 64 -55 69 -55 127 0 56 2 60 23 60 12 0 130 -14 262
-30z m-8901 -1413 l99 -70 -6 -126 c-11 -216 -32 -357 -117 -806 -65 -338 -87
-486 -102 -674 -7 -88 -15 -145 -19 -135 -4 11 -8 446 -8 968 l-1 948 28 -17
c15 -10 72 -49 126 -88z m612 -512 c544 -442 686 -567 872 -768 115 -124 244
-291 317 -408 45 -75 46 -78 31 -106 l-15 -30 -173 -6 c-95 -4 -477 -7 -848
-7 l-675 -1 -3 143 c-3 163 12 294 63 533 19 88 50 235 69 326 40 190 66 379
66 487 0 71 1 74 19 61 10 -8 135 -108 277 -224z m5152 -227 c65 -129 148
-261 214 -340 l40 -48 -24 -9 c-12 -5 -84 -35 -158 -66 -263 -112 -441 -169
-555 -177 l-39 -3 -37 215 c-20 118 -43 248 -51 287 l-15 73 41 11 c188 49
393 120 473 163 15 8 33 15 38 16 6 0 39 -55 73 -122z m2995 -17 c75 -57 134
-108 131 -113 -8 -12 -213 -147 -261 -172 l-33 -17 0 211 c0 169 3 209 13 203
7 -4 74 -55 150 -112z m-11383 -671 c-17 -334 -68 -829 -81 -793 -13 37 -32
500 -26 647 9 212 42 397 95 536 l17 45 3 -110 c2 -60 -2 -207 -8 -325z
m-2188 258 c143 -257 260 -562 323 -843 43 -190 25 -321 -66 -471 -39 -64
-119 -168 -125 -162 -2 2 -6 42 -9 89 -7 116 -15 219 -20 249 -2 14 -7 50 -10
80 -3 30 -8 62 -10 70 -2 8 -7 33 -10 55 -3 23 -8 52 -10 65 -3 14 -8 45 -11
70 -3 25 -8 47 -9 50 -2 3 -6 26 -10 50 -3 25 -8 52 -10 60 -2 8 -6 29 -9 45
-3 17 -12 73 -21 125 -9 52 -18 107 -21 123 -20 121 -63 267 -100 339 -14 27
-13 29 27 58 23 16 45 30 49 30 3 0 27 -37 52 -82z m10913 -93 c-26 -22 -279
-195 -296 -203 -3 -1 -23 13 -44 32 l-38 35 24 10 c13 5 65 26 114 47 100 42
257 103 265 103 3 0 -8 -11 -25 -24z m1160 -270 c-50 -44 -265 -197 -325 -232
l-45 -27 59 55 c85 78 185 154 263 199 83 49 101 51 48 5z m-10615 -23 c0 -50
-31 -172 -65 -253 -41 -99 -292 -574 -350 -664 -100 -153 -181 -223 -332 -285
-43 -17 -113 -48 -157 -68 -88 -41 -88 -41 37 -67 42 -9 78 -22 78 -28 5 -45
-5 -145 -21 -214 -21 -90 -77 -243 -89 -243 -4 0 -29 14 -54 31 -58 38 -115
102 -216 244 -95 133 -165 206 -238 247 l-55 31 48 24 c153 78 238 178 404
478 110 199 159 269 287 404 219 232 416 357 614 390 105 17 109 16 109 -27z
m8985 -3 c6 -6 10 -92 10 -217 0 -306 -17 -343 -181 -412 -64 -26 -371 -96
-381 -87 -2 2 25 82 60 178 83 227 115 344 124 454 l8 90 35 7 c49 10 313 -1
325 -13z m-3345 -714 c218 -30 441 -91 595 -161 l60 -28 -97 -23 c-126 -29
-196 -62 -247 -118 l-42 -45 -142 29 c-168 35 -379 67 -532 81 -208 19 -577
11 -735 -16 l-35 -6 35 37 c54 56 185 152 259 189 84 42 153 65 233 76 92 13
513 3 648 -15z m3149 -582 c-162 -488 -323 -759 -564 -950 l-80 -63 -11 52
c-20 100 -71 167 -190 250 l-73 51 -6 61 c-3 33 -5 185 -3 336 l3 275 245 42
c317 54 718 112 729 106 1 -1 -21 -73 -50 -160z"/>
<path d="M30538 29915 c-1 -2 -80 -6 -173 -9 -468 -17 -509 -19 -640 -32 -156
-15 -360 -53 -348 -64 22 -21 389 -33 553 -19 47 4 123 10 170 13 47 4 103 8
125 11 22 2 76 7 120 10 93 6 158 25 199 58 23 19 26 25 14 30 -9 3 -18 4 -20
2z"/>
<path d="M22223 29660 c-26 -11 -80 -88 -104 -150 -24 -65 -42 -202 -34 -274
20 -199 38 -281 78 -361 82 -166 173 -277 268 -326 33 -17 62 -23 116 -23 71
-1 73 0 113 39 88 86 124 186 123 345 -2 253 -95 489 -251 631 -62 57 -149
104 -208 114 -21 3 -48 8 -59 10 -11 2 -30 -1 -42 -5z"/>
<path d="M22724 26871 c-3 -25 -9 -61 -13 -80 l-7 -35 -212 -57 c-117 -31
-216 -59 -219 -63 -17 -17 219 -4 364 20 247 41 377 22 435 -61 54 -79 156
-360 137 -379 -3 -4 -66 3 -140 15 l-134 21 -340 -52 c-377 -57 -560 -89 -680
-119 l-80 -21 100 6 c55 2 206 21 335 40 384 57 448 65 600 71 l145 6 114 -37
c63 -20 118 -36 122 -36 19 0 43 117 42 205 -2 288 -225 549 -508 593 l-54 9
-7 -46z"/>
<path d="M21960 26599 c-87 -21 -484 -84 -915 -144 -258 -37 -471 -68 -473
-70 -8 -8 104 -57 226 -99 71 -24 152 -56 181 -70 85 -44 133 -123 210 -348
60 -175 81 -228 91 -228 4 0 30 18 57 40 l50 39 -9 58 c-15 106 -58 222 -143
390 -47 92 -83 168 -82 170 2 1 48 12 103 23 54 11 133 31 174 45 114 37 297
81 485 116 94 17 171 32 173 34 4 4 -82 56 -89 54 -2 -1 -20 -5 -39 -10z"/>
<path d="M21808 26053 c7 -3 16 -2 19 1 4 3 -2 6 -13 5 -11 0 -14 -3 -6 -6z"/>
<path d="M14273 25015 c-27 -19 -46 -84 -38 -129 13 -66 95 -136 160 -136 34
0 55 48 55 124 0 67 -11 99 -46 131 -32 29 -97 34 -131 10z"/>
<path d="M29445 20149 c41 -137 173 -243 407 -328 l57 -20 10 49 c27 123 26
126 -10 160 -47 44 -153 105 -224 131 -37 13 -96 23 -154 26 l-93 6 7 -24z"/>
<path d="M28578 20009 c35 -22 96 -54 135 -71 120 -51 1006 -353 1013 -345 13
13 -664 334 -837 398 -102 37 -213 59 -301 59 l-73 0 63 -41z"/>
<path d="M19895 15269 c-148 -10 -428 -40 -435 -46 -10 -11 594 6 795 22 376
29 383 32 60 32 -165 0 -354 -3 -420 -8z"/>
<path d="M19602 14993 c-22 -76 -46 -174 -53 -218 -20 -137 -13 -555 10 -555
14 0 73 109 87 162 8 29 20 129 26 222 9 144 8 195 -7 345 -9 97 -18 177 -19
179 -2 1 -21 -60 -44 -135z"/>
<path d="M12055 7086 c-44 -45 -65 -93 -65 -153 0 -42 11 -41 54 2 24 24 42
56 56 101 33 110 25 119 -45 50z"/>
<path d="M11920 6835 c0 -2 9 -29 21 -60 17 -45 25 -55 44 -55 33 0 162 48
209 78 36 22 38 26 21 33 -21 8 -295 12 -295 4z"/>
<path d="M11789 6782 c-59 -38 -132 -118 -162 -179 -29 -57 -62 -162 -53 -170
3 -4 48 36 99 88 72 74 102 114 140 185 26 50 47 94 47 98 0 13 -28 5 -71 -22z"/>
<path d="M28985 37649 c-64 -9 -195 -46 -195 -55 0 -3 15 -2 33 1 42 8 241 -9
340 -30 332 -68 677 -271 925 -541 42 -47 78 -80 80 -75 5 16 -48 141 -92 215
-23 38 -79 109 -126 157 -244 250 -620 378 -965 328z"/>
</g>
</svg>
